<svg width="512" height="512" viewBox="0 0 512 512" fill="none" xmlns="http://www.w3.org/2000/svg" xmlns:xlink="http://www.w3.org/1999/xlink" class=""><rect id="«r9»" width="512" height="512" x="0" y="0" rx="" fill="#FFFFFF" stroke="#FFFFFF" stroke-width="0" stroke-opacity="100%" paint-order="stroke"></rect><clipPath id="clip"><use xlink:href="#«r9»"></use></clipPath><defs><linearGradient id="«ra»" gradientUnits="userSpaceOnUse" gradientTransform="rotate(45)" style="transform-origin: center center;"><stop stop-color="#FFFFFF"></stop><stop offset="1" stop-color="#3E5151"></stop></linearGradient><radialGradient id="«rb»" cx="0" cy="0" r="1" gradientUnits="userSpaceOnUse" gradientTransform="translate(256) rotate(90) scale(512)"><stop stop-color="white"></stop><stop offset="1" stop-color="white" stop-opacity="0"></stop></radialGradient></defs><svg fill="#FF5CAA" role="img" viewBox="0 0 24 24" xmlns="http://www.w3.org/2000/svg" width="352" height="352" x="80" y="80" alignment-baseline="middle" style="color: rgb(255, 255, 255);"><title>Meilisearch</title><path d="m6.505 18.998 4.434-11.345a4.168 4.168 0 0 1 3.882-2.651h2.674l-4.434 11.345a4.169 4.169 0 0 1-3.883 2.651H6.505Zm6.505 0 4.434-11.345a4.169 4.169 0 0 1 3.883-2.651H24l-4.434 11.345a4.168 4.168 0 0 1-3.882 2.651H13.01Zm-13.01 0L4.434 7.653a4.168 4.168 0 0 1 3.882-2.651h2.674L6.556 16.347a4.169 4.169 0 0 1-3.883 2.651H0Z"></path></svg></svg>